<svg width="16" height="16" viewBox="0 0 560 400" xmlns="http://www.w3.org/2000/svg">
    <style>
        path {
            fill: black;
        }
        @media (prefers-color-scheme: dark) {
            path { fill: white; }
        }
    </style>
    <g fill-rule="nonzero" transform="matrix(.641643 0 0 .641643 152.409 100)">
    <path d="m64.6 237.9c2.4-2.4 5.7-3.8 9.2-3.8h317.4c5.8 0 8.7 7 4.6 11.1l-62.7 62.7c-2.4 2.4-5.7 3.8-9.2 3.8h-317.4c-5.8 0-8.7-7-4.6-11.1z" fill="url(#b)"/><path d="m64.6 3.8c2.5-2.4 5.8-3.8 9.2-3.8h317.4c5.8 0 8.7 7 4.6 11.1l-62.7 62.7c-2.4 2.4-5.7 3.8-9.2 3.8h-317.4c-5.8 0-8.7-7-4.6-11.1z" fill="url(#c)"/>

    <path d="m333.1 120.1c-2.4-2.4-5.7-3.8-9.2-3.8h-317.4c-5.8 0-8.7 7-4.6 11.1l62.7 62.7c2.4 2.4 5.7 3.8 9.2 3.8h317.4c5.8 0 8.7-7 4.6-11.1z" fill="url(#d)"/>
    </g>
</svg>